<?xml version="1.0" standalone="no"?>
<!DOCTYPE svg PUBLIC "-//W3C//DTD SVG 1.1//EN" "http://www.w3.org/Graphics/SVG/1.1/DTD/svg11.dtd" >
<svg xmlns="http://www.w3.org/2000/svg">
<metadata>
This is a custom SVG webfont generated by Font Squirrel.
Copyright   : c Jakob Fischer at wwwpizzadudedk  DO NOT DISTRIBUTE WITHOUT AUTHORS PERMISSION
</metadata>
<defs>
<font id="webfont0lJildfA" horiz-adv-x="1638" >
<font-face units-per-em="2048" ascent="1638" descent="-410" />
<missing-glyph horiz-adv-x="500" />
<glyph unicode=" " />
<glyph unicode="!" d="M596 -213q0 63 43 104t106 41q61 0 104.5 -42t43.5 -103q0 -59 -44 -104t-104 -45q-61 0 -105 44t-44 105zM659 737v658l82 90l88 -90v-658l-81 -90z" />
<glyph unicode="&#x22;" d="M43 1147v248l82 90l86 -90v-248l-82 -90zM659 1147v248l82 90l88 -90v-248l-81 -90z" />
<glyph unicode="#" d="M43 -158v656l82 90l86 -90v-656l-82 -92zM43 737v658l82 90l86 -90v-658l-82 -90zM156 616l90 86h379l90 -81l-90 -86h-379zM659 -158v656l82 90l88 -90v-656l-81 -92zM659 737v658l82 90l88 -90v-658l-81 -90zM774 616l90 86h379l90 -81l-90 -86h-379zM1278 -158v656 l82 90l86 -90v-656l-82 -92zM1278 737v662l82 90l86 -90v-662l-82 -90z" />
<glyph unicode="$" d="M43 737v658l82 90l86 -90v-658l-82 -90zM156 -281l90 86h379l90 -81l-90 -86h-379zM156 616l90 86h379l90 -81l-90 -86h-379zM156 1513l90 86h379l90 -81l-90 -86h-379zM659 -158v656l82 90l88 -90v-656l-81 -92zM659 737v658l82 90l88 -90v-658l-81 -90zM774 -281l90 86 h379l90 -81l-90 -86h-379zM774 616l90 86h379l90 -81l-90 -86h-379zM774 1513l90 86h379l90 -81l-90 -86h-379zM1278 -158v656l82 90l86 -90v-656l-82 -92z" />
<glyph unicode="%" d="M43 737v658l82 90l86 -90v-658l-82 -90zM156 616l90 86h379l90 -81l-90 -86h-379zM156 1513l90 86h379l90 -81l-90 -86h-379zM242 53l313 451h76v-176l-344 -492h-45v217zM659 -158v656l82 90l88 -90v-656l-81 -92zM659 737v658l82 90l88 -90v-658l-81 -90zM774 -281 l90 86h379l90 -81l-90 -86h-379zM774 616l90 86h379l90 -81l-90 -86h-379zM858 733v176l344 492h45v-219l-313 -449h-76zM1278 -158v656l82 90l86 -90v-656l-82 -92z" />
<glyph unicode="&#x26;" d="M43 -158v656l82 90l86 -90v-656l-82 -92zM43 737v658l82 90l86 -90v-658l-82 -90zM156 -281l90 86h379l90 -81l-90 -86h-379zM156 616l90 86h379l90 -81l-90 -86h-379zM156 1513l90 86h379l90 -81l-90 -86h-379zM659 -158v656l82 90l88 -90v-656l-81 -92zM659 737v658 l82 90l88 -90v-658l-81 -90zM774 -281l90 86h379l90 -81l-90 -86h-379zM858 53l316 451h73v-176l-344 -492h-45v217z" />
<glyph unicode="'" d="M659 1147v248l82 90l88 -90v-248l-81 -90z" />
<glyph unicode="(" d="M659 -158v656l82 90l88 -90v-656l-81 -92zM659 737v658l82 90l88 -90v-658l-81 -90zM774 -281l90 86h379l90 -81l-90 -86h-379zM774 1513l90 86h379l90 -81l-90 -86h-379z" />
<glyph unicode=")" d="M156 -281l90 86h379l90 -81l-90 -86h-379zM156 1513l90 86h379l90 -81l-90 -86h-379zM659 -158v656l82 90l88 -90v-656l-81 -92zM659 737v658l82 90l88 -90v-658l-81 -90z" />
<glyph unicode="*" d="M242 53l313 451h76v-176l-344 -492h-45v217zM242 1182v219h45l344 -492v-176h-76zM858 328v176h76l313 -451v-217h-45zM858 733v176l344 492h45v-219l-313 -449h-76z" />
<glyph unicode="+" d="M156 616l90 86h379l90 -81l-90 -86h-379zM659 -158v656l82 90l88 -90v-656l-81 -92zM659 737v658l82 90l88 -90v-658l-81 -90zM774 616l90 86h379l90 -81l-90 -86h-379z" />
<glyph unicode="," d="M596 -213q0 63 43 104t106 41q61 0 104.5 -42t43.5 -103q0 -66 -41 -162q-47 -111 -107 -110q-59 0 -108 108q-41 92 -41 164z" />
<glyph unicode="-" d="M156 616l90 86h379l90 -81l-90 -86h-379zM774 616l90 86h379l90 -81l-90 -86h-379z" />
<glyph unicode="." d="M596 -213q0 63 43 104t106 41q61 0 104.5 -42t43.5 -103q0 -59 -44 -104t-104 -45q-61 0 -105 44t-44 105z" />
<glyph unicode="/" d="M242 53l313 451h76v-176l-344 -492h-45v217zM858 733v176l344 492h45v-219l-313 -449h-76z" />
<glyph unicode="0" d="M43 -158v656l82 90l86 -90v-656l-82 -92zM43 737v658l82 90l86 -90v-658l-82 -90zM156 -281l90 86h379l90 -81l-90 -86h-379zM156 1513l90 86h379l90 -81l-90 -86h-379zM242 53l313 451h76v-176l-344 -492h-45v217zM774 -281l90 86h379l90 -81l-90 -86h-379zM774 1513 l90 86h379l90 -81l-90 -86h-379zM858 733v176l344 492h45v-219l-313 -449h-76zM1278 -158v656l82 90l86 -90v-656l-82 -92zM1278 737v662l82 90l86 -90v-662l-82 -90z" />
<glyph unicode="1" d="M156 -281l90 86h379l90 -81l-90 -86h-379zM156 1513l90 86h379l90 -81l-90 -86h-379zM659 -158v656l82 90l88 -90v-656l-81 -92zM659 737v658l82 90l88 -90v-658l-81 -90zM774 -281l90 86h379l90 -81l-90 -86h-379z" />
<glyph unicode="2" d="M43 -158v656l82 90l86 -90v-656l-82 -92zM156 -281l90 86h379l90 -81l-90 -86h-379zM156 616l90 86h379l90 -81l-90 -86h-379zM156 1513l90 86h379l90 -81l-90 -86h-379zM774 -281l90 86h379l90 -81l-90 -86h-379zM774 616l90 86h379l90 -81l-90 -86h-379zM774 1513 l90 86h379l90 -81l-90 -86h-379zM1278 737v662l82 90l86 -90v-662l-82 -90z" />
<glyph unicode="3" d="M156 -281l90 86h379l90 -81l-90 -86h-379zM156 1513l90 86h379l90 -81l-90 -86h-379zM774 -281l90 86h379l90 -81l-90 -86h-379zM774 616l90 86h379l90 -81l-90 -86h-379zM774 1513l90 86h379l90 -81l-90 -86h-379zM1278 -158v656l82 90l86 -90v-656l-82 -92zM1278 737 v662l82 90l86 -90v-662l-82 -90z" />
<glyph unicode="4" d="M43 737v658l82 90l86 -90v-658l-82 -90zM156 616l90 86h379l90 -81l-90 -86h-379zM774 616l90 86h379l90 -81l-90 -86h-379zM1278 -158v656l82 90l86 -90v-656l-82 -92zM1278 737v662l82 90l86 -90v-662l-82 -90z" />
<glyph unicode="5" d="M43 737v658l82 90l86 -90v-658l-82 -90zM156 -281l90 86h379l90 -81l-90 -86h-379zM156 616l90 86h379l90 -81l-90 -86h-379zM156 1513l90 86h379l90 -81l-90 -86h-379zM774 -281l90 86h379l90 -81l-90 -86h-379zM774 616l90 86h379l90 -81l-90 -86h-379zM774 1513l90 86 h379l90 -81l-90 -86h-379zM1278 -158v656l82 90l86 -90v-656l-82 -92z" />
<glyph unicode="6" d="M43 -158v656l82 90l86 -90v-656l-82 -92zM43 737v658l82 90l86 -90v-658l-82 -90zM156 -281l90 86h379l90 -81l-90 -86h-379zM156 616l90 86h379l90 -81l-90 -86h-379zM156 1513l90 86h379l90 -81l-90 -86h-379zM774 -281l90 86h379l90 -81l-90 -86h-379zM774 616l90 86 h379l90 -81l-90 -86h-379zM774 1513l90 86h379l90 -81l-90 -86h-379zM1278 -158v656l82 90l86 -90v-656l-82 -92z" />
<glyph unicode="7" d="M156 1513l90 86h379l90 -81l-90 -86h-379zM242 53l313 451h76v-176l-344 -492h-45v217zM774 1513l90 86h379l90 -81l-90 -86h-379zM858 733v176l344 492h45v-219l-313 -449h-76z" />
<glyph unicode="8" d="M43 -158v656l82 90l86 -90v-656l-82 -92zM43 737v658l82 90l86 -90v-658l-82 -90zM156 -281l90 86h379l90 -81l-90 -86h-379zM156 616l90 86h379l90 -81l-90 -86h-379zM156 1513l90 86h379l90 -81l-90 -86h-379zM774 -281l90 86h379l90 -81l-90 -86h-379zM774 616l90 86 h379l90 -81l-90 -86h-379zM774 1513l90 86h379l90 -81l-90 -86h-379zM1278 -158v656l82 90l86 -90v-656l-82 -92zM1278 737v662l82 90l86 -90v-662l-82 -90z" />
<glyph unicode="9" d="M43 737v658l82 90l86 -90v-658l-82 -90zM156 -281l90 86h379l90 -81l-90 -86h-379zM156 616l90 86h379l90 -81l-90 -86h-379zM156 1513l90 86h379l90 -81l-90 -86h-379zM774 -281l90 86h379l90 -81l-90 -86h-379zM774 616l90 86h379l90 -81l-90 -86h-379zM774 1513l90 86 h379l90 -81l-90 -86h-379zM1278 -158v656l82 90l86 -90v-656l-82 -92zM1278 737v662l82 90l86 -90v-662l-82 -90z" />
<glyph unicode=":" d="M596 346q0 63 43 104.5t106 41.5q59 0 103.5 -43t44.5 -103q0 -59 -44 -105t-104 -46q-61 0 -105 45t-44 106zM596 891q0 61 44 105t105 44t104.5 -44t43.5 -105q0 -63 -42 -104.5t-106 -41.5q-61 0 -105 42.5t-44 103.5z" />
<glyph unicode=";" d="M596 346q0 63 43 104.5t106 41.5q59 0 103.5 -43t44.5 -103q0 -72 -43 -166q-49 -109 -105 -108q-61 0 -108 110q-41 96 -41 164zM596 891q0 61 44 105t105 44t104.5 -44t43.5 -105q0 -63 -42 -104.5t-106 -41.5q-61 0 -105 42.5t-44 103.5z" />
<glyph unicode="&#x3c;" d="M858 328v176h76l313 -451v-217h-45zM858 733v176l344 492h45v-219l-313 -449h-76z" />
<glyph unicode="=" d="M156 412l90 86h379l90 -82l-90 -86h-379zM156 821l90 86h379l90 -82l-90 -86h-379zM774 412l90 86h379l90 -82l-90 -86h-379zM774 821l90 86h379l90 -82l-90 -86h-379z" />
<glyph unicode="&#x3e;" d="M242 53l313 451h76v-176l-344 -492h-45v217zM242 1182v219h45l344 -492v-176h-76z" />
<glyph unicode="?" d="M156 1513l90 86h379l90 -81l-90 -86h-379zM659 -158v656l82 90l88 -90v-656l-81 -92zM774 616l90 86h379l90 -81l-90 -86h-379zM774 1513l90 86h379l90 -81l-90 -86h-379zM1278 737v662l82 90l86 -90v-662l-82 -90z" />
<glyph unicode="@" d="M43 -158v656l82 90l86 -90v-656l-82 -92zM43 737v658l82 90l86 -90v-658l-82 -90zM156 -281l90 86h379l90 -81l-90 -86h-379zM156 616l90 86h379l90 -81l-90 -86h-379zM156 1513l90 86h379l90 -81l-90 -86h-379zM242 53l313 451h76v-176l-344 -492h-45v217zM242 1182v219 h45l344 -492v-176h-76zM659 -158v656l82 90l88 -90v-656l-81 -92zM659 737v658l82 90l88 -90v-658l-81 -90zM774 -281l90 86h379l90 -81l-90 -86h-379zM774 616l90 86h379l90 -81l-90 -86h-379zM774 1513l90 86h379l90 -81l-90 -86h-379zM858 328v176h76l313 -451v-217h-45z M858 733v176l344 492h45v-219l-313 -449h-76zM1278 -158v656l82 90l86 -90v-656l-82 -92zM1278 737v662l82 90l86 -90v-662l-82 -90z" />
<glyph unicode="A" d="M43 -158v656l82 90l86 -90v-656l-82 -92zM156 616l90 86h379l90 -81l-90 -86h-379zM242 733v176l344 492h45v-219l-316 -449h-73zM774 616l90 86h379l90 -81l-90 -86h-379zM858 1182v219h45l344 -492v-176h-73zM1278 -158v656l82 90l86 -90v-656l-82 -92z" />
<glyph unicode="B" d="M43 -158v656l82 90l86 -90v-656l-82 -92zM43 737v658l82 90l86 -90v-658l-82 -90zM156 -281l90 86h379l90 -81l-90 -86h-379zM156 616l90 86h379l90 -81l-90 -86h-379zM156 1513l90 86h379l90 -81l-90 -86h-379zM774 -281l90 86h379l90 -81l-90 -86h-379zM774 616l90 86 h379l90 -81l-90 -86h-379zM774 1513l90 86h379l90 -81l-90 -86h-379zM1278 -158v656l82 90l86 -90v-656l-82 -92zM1278 737v662l82 90l86 -90v-662l-82 -90z" />
<glyph unicode="C" d="M43 -158v656l82 90l86 -90v-656l-82 -92zM43 737v658l82 90l86 -90v-658l-82 -90zM156 -281l90 86h379l90 -81l-90 -86h-379zM156 1513l90 86h379l90 -81l-90 -86h-379zM774 -281l90 86h379l90 -81l-90 -86h-379zM774 1513l90 86h379l90 -81l-90 -86h-379z" />
<glyph unicode="D" d="M43 -158v656l82 90l86 -90v-656l-82 -92zM43 737v658l82 90l86 -90v-658l-82 -90zM156 -281l90 86h379l90 -81l-90 -86h-379zM156 1513l90 86h379l90 -81l-90 -86h-379zM858 53l316 451h73v-176l-344 -492h-45v217zM858 1182v219h45l344 -492v-176h-73z" />
<glyph unicode="E" d="M43 -158v656l82 90l86 -90v-656l-82 -92zM43 737v658l82 90l86 -90v-658l-82 -90zM156 -281l90 86h379l90 -81l-90 -86h-379zM156 616l90 86h379l90 -81l-90 -86h-379zM156 1513l90 86h379l90 -81l-90 -86h-379zM774 -281l90 86h379l90 -81l-90 -86h-379zM774 616l90 86 h379l90 -81l-90 -86h-379zM774 1513l90 86h379l90 -81l-90 -86h-379z" />
<glyph unicode="F" d="M43 -158v656l82 90l86 -90v-656l-82 -92zM43 737v658l82 90l86 -90v-658l-82 -90zM156 616l90 86h379l90 -81l-90 -86h-379zM156 1513l90 86h379l90 -81l-90 -86h-379zM774 616l90 86h379l90 -81l-90 -86h-379zM774 1513l90 86h379l90 -81l-90 -86h-379z" />
<glyph unicode="G" d="M43 -158v656l82 90l86 -90v-656l-82 -92zM43 737v658l82 90l86 -90v-658l-82 -90zM156 -281l90 86h379l90 -81l-90 -86h-379zM156 1513l90 86h379l90 -81l-90 -86h-379zM774 -281l90 86h379l90 -81l-90 -86h-379zM774 616l90 86h379l90 -81l-90 -86h-379zM774 1513l90 86 h379l90 -81l-90 -86h-379zM1278 -158v656l82 90l86 -90v-656l-82 -92z" />
<glyph unicode="H" d="M43 -158v656l82 90l86 -90v-656l-82 -92zM43 737v658l82 90l86 -90v-658l-82 -90zM156 616l90 86h379l90 -81l-90 -86h-379zM774 616l90 86h379l90 -81l-90 -86h-379zM1278 -158v656l82 90l86 -90v-656l-82 -92zM1278 737v662l82 90l86 -90v-662l-82 -90z" />
<glyph unicode="I" d="M156 -281l90 86h379l90 -81l-90 -86h-379zM156 1513l90 86h379l90 -81l-90 -86h-379zM659 -158v656l82 90l88 -90v-656l-81 -92zM659 737v658l82 90l88 -90v-658l-81 -90zM774 -281l90 86h379l90 -81l-90 -86h-379zM774 1513l90 86h379l90 -81l-90 -86h-379z" />
<glyph unicode="J" d="M43 -158v656l82 90l86 -90v-656l-82 -92zM156 -281l90 86h379l90 -81l-90 -86h-379zM774 -281l90 86h379l90 -81l-90 -86h-379zM774 1513l90 86h379l90 -81l-90 -86h-379zM1278 -158v656l82 90l86 -90v-656l-82 -92zM1278 737v662l82 90l86 -90v-662l-82 -90z" />
<glyph unicode="K" d="M43 -158v656l82 90l86 -90v-656l-82 -92zM43 737v658l82 90l86 -90v-658l-82 -90zM156 616l90 86h379l90 -81l-90 -86h-379zM858 328v176h76l313 -451v-217h-45zM858 733v176l344 492h45v-219l-313 -449h-76z" />
<glyph unicode="L" d="M43 -158v656l82 90l86 -90v-656l-82 -92zM43 737v658l82 90l86 -90v-658l-82 -90zM156 -281l90 86h379l90 -81l-90 -86h-379zM774 -281l90 86h379l90 -81l-90 -86h-379z" />
<glyph unicode="M" d="M43 -158v656l82 90l86 -90v-656l-82 -92zM43 737v658l82 90l86 -90v-658l-82 -90zM242 1182v219h45l344 -492v-176h-76zM858 733v176l344 492h45v-219l-313 -449h-76zM1278 -158v656l82 90l86 -90v-656l-82 -92zM1278 737v662l82 90l86 -90v-662l-82 -90z" />
<glyph unicode="N" d="M43 -158v656l82 90l86 -90v-656l-82 -92zM43 737v658l82 90l86 -90v-658l-82 -90zM242 1182v219h45l344 -492v-176h-76zM858 328v176h76l313 -451v-217h-45zM1278 -158v656l82 90l86 -90v-656l-82 -92zM1278 737v662l82 90l86 -90v-662l-82 -90z" />
<glyph unicode="O" d="M43 -158v656l82 90l86 -90v-656l-82 -92zM43 737v658l82 90l86 -90v-658l-82 -90zM156 -281l90 86h379l90 -81l-90 -86h-379zM156 1513l90 86h379l90 -81l-90 -86h-379zM774 -281l90 86h379l90 -81l-90 -86h-379zM774 1513l90 86h379l90 -81l-90 -86h-379zM1278 -158v656 l82 90l86 -90v-656l-82 -92zM1278 737v662l82 90l86 -90v-662l-82 -90z" />
<glyph unicode="P" d="M43 -158v656l82 90l86 -90v-656l-82 -92zM43 737v658l82 90l86 -90v-658l-82 -90zM156 616l90 86h379l90 -81l-90 -86h-379zM156 1513l90 86h379l90 -81l-90 -86h-379zM774 616l90 86h379l90 -81l-90 -86h-379zM774 1513l90 86h379l90 -81l-90 -86h-379zM1278 737v662 l82 90l86 -90v-662l-82 -90z" />
<glyph unicode="Q" d="M43 -158v656l82 90l86 -90v-656l-82 -92zM43 737v658l82 90l86 -90v-658l-82 -90zM156 -281l90 86h379l90 -81l-90 -86h-379zM156 1513l90 86h379l90 -81l-90 -86h-379zM774 -281l90 86h379l90 -81l-90 -86h-379zM774 1513l90 86h379l90 -81l-90 -86h-379zM858 328v176 h76l313 -451v-217h-45zM1278 -158v656l82 90l86 -90v-656l-82 -92zM1278 737v662l82 90l86 -90v-662l-82 -90z" />
<glyph unicode="R" d="M43 -158v656l82 90l86 -90v-656l-82 -92zM43 737v658l82 90l86 -90v-658l-82 -90zM156 616l90 86h379l90 -81l-90 -86h-379zM156 1513l90 86h379l90 -81l-90 -86h-379zM774 616l90 86h379l90 -81l-90 -86h-379zM774 1513l90 86h379l90 -81l-90 -86h-379zM858 328v176h76 l313 -451v-217h-45zM1278 737v662l82 90l86 -90v-662l-82 -90z" />
<glyph unicode="S" d="M43 737v658l82 90l86 -90v-658l-82 -90zM156 -281l90 86h379l90 -81l-90 -86h-379zM156 616l90 86h379l90 -81l-90 -86h-379zM156 1513l90 86h379l90 -81l-90 -86h-379zM774 -281l90 86h379l90 -81l-90 -86h-379zM774 616l90 86h379l90 -81l-90 -86h-379zM774 1513l90 86 h379l90 -81l-90 -86h-379zM1278 -158v656l82 90l86 -90v-656l-82 -92z" />
<glyph unicode="T" d="M156 1513l90 86h379l90 -81l-90 -86h-379zM659 -158v656l82 90l88 -90v-656l-81 -92zM659 737v658l82 90l88 -90v-658l-81 -90zM774 1513l90 86h379l90 -81l-90 -86h-379z" />
<glyph unicode="U" d="M43 -158v656l82 90l86 -90v-656l-82 -92zM43 737v658l82 90l86 -90v-658l-82 -90zM156 -281l90 86h379l90 -81l-90 -86h-379zM774 -281l90 86h379l90 -81l-90 -86h-379zM1278 -158v656l82 90l86 -90v-656l-82 -92zM1278 737v662l82 90l86 -90v-662l-82 -90z" />
<glyph unicode="V" d="M43 737v658l82 90l86 -90v-658l-82 -90zM242 328v176h73l316 -451v-217h-45zM858 53l316 451h73v-176l-344 -492h-45v217zM1278 737v662l82 90l86 -90v-662l-82 -90z" />
<glyph unicode="W" d="M43 -158v656l82 90l86 -90v-656l-82 -92zM43 737v658l82 90l86 -90v-658l-82 -90zM242 53l313 451h76v-176l-344 -492h-45v217zM858 328v176h76l313 -451v-217h-45zM1278 -158v656l82 90l86 -90v-656l-82 -92zM1278 737v662l82 90l86 -90v-662l-82 -90z" />
<glyph unicode="X" d="M242 53l313 451h76v-176l-344 -492h-45v217zM242 1182v219h45l344 -492v-176h-76zM858 328v176h76l313 -451v-217h-45zM858 733v176l344 492h45v-219l-313 -449h-76z" />
<glyph unicode="Y" d="M242 1182v219h45l344 -492v-176h-76zM659 -158v656l82 90l88 -90v-656l-81 -92zM858 733v176l344 492h45v-219l-313 -449h-76z" />
<glyph unicode="Z" d="M156 -281l90 86h379l90 -81l-90 -86h-379zM156 1513l90 86h379l90 -81l-90 -86h-379zM242 53l313 451h76v-176l-344 -492h-45v217zM774 -281l90 86h379l90 -81l-90 -86h-379zM774 1513l90 86h379l90 -81l-90 -86h-379zM858 733v176l344 492h45v-219l-313 -449h-76z" />
<glyph unicode="[" d="M659 -158v656l82 90l88 -90v-656l-81 -92zM659 737v658l82 90l88 -90v-658l-81 -90zM774 -281l90 86h379l90 -81l-90 -86h-379zM774 1513l90 86h379l90 -81l-90 -86h-379z" />
<glyph unicode="\" d="M242 1182v219h45l344 -492v-176h-76zM858 328v176h76l313 -451v-217h-45z" />
<glyph unicode="]" d="M156 -281l90 86h379l90 -81l-90 -86h-379zM156 1513l90 86h379l90 -81l-90 -86h-379zM659 -158v656l82 90l88 -90v-656l-81 -92zM659 737v658l82 90l88 -90v-658l-81 -90z" />
<glyph unicode="^" d="M242 733v176l344 492h45v-219l-316 -449h-73zM858 1182v219h45l344 -492v-176h-73z" />
<glyph unicode="_" d="M156 -281l90 86h379l90 -81l-90 -86h-379zM774 -281l90 86h379l90 -81l-90 -86h-379z" />
<glyph unicode="`" d="M242 1182v219h45l344 -492v-176h-76z" />
<glyph unicode="a" d="M43 -158v656l82 90l86 -90v-656l-82 -92zM156 616l90 86h379l90 -81l-90 -86h-379zM242 733v176l344 492h45v-219l-316 -449h-73zM774 616l90 86h379l90 -81l-90 -86h-379zM858 1182v219h45l344 -492v-176h-73zM1278 -158v656l82 90l86 -90v-656l-82 -92z" />
<glyph unicode="b" d="M43 -158v656l82 90l86 -90v-656l-82 -92zM43 737v658l82 90l86 -90v-658l-82 -90zM156 -281l90 86h379l90 -81l-90 -86h-379zM156 616l90 86h379l90 -81l-90 -86h-379zM156 1513l90 86h379l90 -81l-90 -86h-379zM774 -281l90 86h379l90 -81l-90 -86h-379zM774 616l90 86 h379l90 -81l-90 -86h-379zM774 1513l90 86h379l90 -81l-90 -86h-379zM1278 -158v656l82 90l86 -90v-656l-82 -92zM1278 737v662l82 90l86 -90v-662l-82 -90z" />
<glyph unicode="c" d="M43 -158v656l82 90l86 -90v-656l-82 -92zM43 737v658l82 90l86 -90v-658l-82 -90zM156 -281l90 86h379l90 -81l-90 -86h-379zM156 1513l90 86h379l90 -81l-90 -86h-379zM774 -281l90 86h379l90 -81l-90 -86h-379zM774 1513l90 86h379l90 -81l-90 -86h-379z" />
<glyph unicode="d" d="M43 -158v656l82 90l86 -90v-656l-82 -92zM43 737v658l82 90l86 -90v-658l-82 -90zM156 -281l90 86h379l90 -81l-90 -86h-379zM156 1513l90 86h379l90 -81l-90 -86h-379zM858 53l316 451h73v-176l-344 -492h-45v217zM858 1182v219h45l344 -492v-176h-73z" />
<glyph unicode="e" d="M43 -158v656l82 90l86 -90v-656l-82 -92zM43 737v658l82 90l86 -90v-658l-82 -90zM156 -281l90 86h379l90 -81l-90 -86h-379zM156 616l90 86h379l90 -81l-90 -86h-379zM156 1513l90 86h379l90 -81l-90 -86h-379zM774 -281l90 86h379l90 -81l-90 -86h-379zM774 616l90 86 h379l90 -81l-90 -86h-379zM774 1513l90 86h379l90 -81l-90 -86h-379z" />
<glyph unicode="f" d="M43 -158v656l82 90l86 -90v-656l-82 -92zM43 737v658l82 90l86 -90v-658l-82 -90zM156 616l90 86h379l90 -81l-90 -86h-379zM156 1513l90 86h379l90 -81l-90 -86h-379zM774 616l90 86h379l90 -81l-90 -86h-379zM774 1513l90 86h379l90 -81l-90 -86h-379z" />
<glyph unicode="g" d="M43 -158v656l82 90l86 -90v-656l-82 -92zM43 737v658l82 90l86 -90v-658l-82 -90zM156 -281l90 86h379l90 -81l-90 -86h-379zM156 1513l90 86h379l90 -81l-90 -86h-379zM774 -281l90 86h379l90 -81l-90 -86h-379zM774 616l90 86h379l90 -81l-90 -86h-379zM774 1513l90 86 h379l90 -81l-90 -86h-379zM1278 -158v656l82 90l86 -90v-656l-82 -92z" />
<glyph unicode="h" d="M43 -158v656l82 90l86 -90v-656l-82 -92zM43 737v658l82 90l86 -90v-658l-82 -90zM156 616l90 86h379l90 -81l-90 -86h-379zM774 616l90 86h379l90 -81l-90 -86h-379zM1278 -158v656l82 90l86 -90v-656l-82 -92zM1278 737v662l82 90l86 -90v-662l-82 -90z" />
<glyph unicode="i" d="M156 -281l90 86h379l90 -81l-90 -86h-379zM156 1513l90 86h379l90 -81l-90 -86h-379zM659 -158v656l82 90l88 -90v-656l-81 -92zM659 737v658l82 90l88 -90v-658l-81 -90zM774 -281l90 86h379l90 -81l-90 -86h-379zM774 1513l90 86h379l90 -81l-90 -86h-379z" />
<glyph unicode="j" d="M43 -158v656l82 90l86 -90v-656l-82 -92zM156 -281l90 86h379l90 -81l-90 -86h-379zM774 -281l90 86h379l90 -81l-90 -86h-379zM774 1513l90 86h379l90 -81l-90 -86h-379zM1278 -158v656l82 90l86 -90v-656l-82 -92zM1278 737v662l82 90l86 -90v-662l-82 -90z" />
<glyph unicode="k" d="M43 -158v656l82 90l86 -90v-656l-82 -92zM43 737v658l82 90l86 -90v-658l-82 -90zM156 616l90 86h379l90 -81l-90 -86h-379zM858 328v176h76l313 -451v-217h-45zM858 733v176l344 492h45v-219l-313 -449h-76z" />
<glyph unicode="l" d="M43 -158v656l82 90l86 -90v-656l-82 -92zM43 737v658l82 90l86 -90v-658l-82 -90zM156 -281l90 86h379l90 -81l-90 -86h-379zM774 -281l90 86h379l90 -81l-90 -86h-379z" />
<glyph unicode="m" d="M43 -158v656l82 90l86 -90v-656l-82 -92zM43 737v658l82 90l86 -90v-658l-82 -90zM242 1182v219h45l344 -492v-176h-76zM858 733v176l344 492h45v-219l-313 -449h-76zM1278 -158v656l82 90l86 -90v-656l-82 -92zM1278 737v662l82 90l86 -90v-662l-82 -90z" />
<glyph unicode="n" d="M43 -158v656l82 90l86 -90v-656l-82 -92zM43 737v658l82 90l86 -90v-658l-82 -90zM242 1182v219h45l344 -492v-176h-76zM858 328v176h76l313 -451v-217h-45zM1278 -158v656l82 90l86 -90v-656l-82 -92zM1278 737v662l82 90l86 -90v-662l-82 -90z" />
<glyph unicode="o" d="M43 -158v656l82 90l86 -90v-656l-82 -92zM43 737v658l82 90l86 -90v-658l-82 -90zM156 -281l90 86h379l90 -81l-90 -86h-379zM156 1513l90 86h379l90 -81l-90 -86h-379zM774 -281l90 86h379l90 -81l-90 -86h-379zM774 1513l90 86h379l90 -81l-90 -86h-379zM1278 -158v656 l82 90l86 -90v-656l-82 -92zM1278 737v662l82 90l86 -90v-662l-82 -90z" />
<glyph unicode="p" d="M43 -158v656l82 90l86 -90v-656l-82 -92zM43 737v658l82 90l86 -90v-658l-82 -90zM156 616l90 86h379l90 -81l-90 -86h-379zM156 1513l90 86h379l90 -81l-90 -86h-379zM774 616l90 86h379l90 -81l-90 -86h-379zM774 1513l90 86h379l90 -81l-90 -86h-379zM1278 737v662 l82 90l86 -90v-662l-82 -90z" />
<glyph unicode="q" d="M43 -158v656l82 90l86 -90v-656l-82 -92zM43 737v658l82 90l86 -90v-658l-82 -90zM156 -281l90 86h379l90 -81l-90 -86h-379zM156 1513l90 86h379l90 -81l-90 -86h-379zM774 -281l90 86h379l90 -81l-90 -86h-379zM774 1513l90 86h379l90 -81l-90 -86h-379zM858 328v176 h76l313 -451v-217h-45zM1278 -158v656l82 90l86 -90v-656l-82 -92zM1278 737v662l82 90l86 -90v-662l-82 -90z" />
<glyph unicode="r" d="M43 -158v656l82 90l86 -90v-656l-82 -92zM43 737v658l82 90l86 -90v-658l-82 -90zM156 616l90 86h379l90 -81l-90 -86h-379zM156 1513l90 86h379l90 -81l-90 -86h-379zM774 616l90 86h379l90 -81l-90 -86h-379zM774 1513l90 86h379l90 -81l-90 -86h-379zM858 328v176h76 l313 -451v-217h-45zM1278 737v662l82 90l86 -90v-662l-82 -90z" />
<glyph unicode="s" d="M43 737v658l82 90l86 -90v-658l-82 -90zM156 -281l90 86h379l90 -81l-90 -86h-379zM156 616l90 86h379l90 -81l-90 -86h-379zM156 1513l90 86h379l90 -81l-90 -86h-379zM774 -281l90 86h379l90 -81l-90 -86h-379zM774 616l90 86h379l90 -81l-90 -86h-379zM774 1513l90 86 h379l90 -81l-90 -86h-379zM1278 -158v656l82 90l86 -90v-656l-82 -92z" />
<glyph unicode="t" d="M156 1513l90 86h379l90 -81l-90 -86h-379zM659 -158v656l82 90l88 -90v-656l-81 -92zM659 737v658l82 90l88 -90v-658l-81 -90zM774 1513l90 86h379l90 -81l-90 -86h-379z" />
<glyph unicode="u" d="M43 -158v656l82 90l86 -90v-656l-82 -92zM43 737v658l82 90l86 -90v-658l-82 -90zM156 -281l90 86h379l90 -81l-90 -86h-379zM774 -281l90 86h379l90 -81l-90 -86h-379zM1278 -158v656l82 90l86 -90v-656l-82 -92zM1278 737v662l82 90l86 -90v-662l-82 -90z" />
<glyph unicode="v" d="M43 737v658l82 90l86 -90v-658l-82 -90zM242 328v176h73l316 -451v-217h-45zM858 53l316 451h73v-176l-344 -492h-45v217zM1278 737v662l82 90l86 -90v-662l-82 -90z" />
<glyph unicode="w" d="M43 -158v656l82 90l86 -90v-656l-82 -92zM43 737v658l82 90l86 -90v-658l-82 -90zM242 53l313 451h76v-176l-344 -492h-45v217zM858 328v176h76l313 -451v-217h-45zM1278 -158v656l82 90l86 -90v-656l-82 -92zM1278 737v662l82 90l86 -90v-662l-82 -90z" />
<glyph unicode="x" d="M242 53l313 451h76v-176l-344 -492h-45v217zM242 1182v219h45l344 -492v-176h-76zM858 328v176h76l313 -451v-217h-45zM858 733v176l344 492h45v-219l-313 -449h-76z" />
<glyph unicode="y" d="M242 1182v219h45l344 -492v-176h-76zM659 -158v656l82 90l88 -90v-656l-81 -92zM858 733v176l344 492h45v-219l-313 -449h-76z" />
<glyph unicode="z" d="M156 -281l90 86h379l90 -81l-90 -86h-379zM156 1513l90 86h379l90 -81l-90 -86h-379zM242 53l313 451h76v-176l-344 -492h-45v217zM774 -281l90 86h379l90 -81l-90 -86h-379zM774 1513l90 86h379l90 -81l-90 -86h-379zM858 733v176l344 492h45v-219l-313 -449h-76z" />
<glyph unicode="{" d="M156 616l90 86h379l90 -81l-90 -86h-379zM659 -158v656l82 90l88 -90v-656l-81 -92zM659 737v658l82 90l88 -90v-658l-81 -90zM774 -281l90 86h379l90 -81l-90 -86h-379zM774 1513l90 86h379l90 -81l-90 -86h-379z" />
<glyph unicode="|" d="M659 -158v656l82 90l88 -90v-656l-81 -92zM659 737v658l82 90l88 -90v-658l-81 -90z" />
<glyph unicode="}" d="M156 -281l90 86h379l90 -81l-90 -86h-379zM156 1513l90 86h379l90 -81l-90 -86h-379zM659 -158v656l82 90l88 -90v-656l-81 -92zM659 737v658l82 90l88 -90v-658l-81 -90zM774 616l90 86h379l90 -81l-90 -86h-379z" />
<glyph unicode="&#xa0;" />
<glyph unicode="&#xad;" d="M156 616l90 86h379l90 -81l-90 -86h-379zM774 616l90 86h379l90 -81l-90 -86h-379z" />
<glyph unicode="&#x2000;" horiz-adv-x="819" />
<glyph unicode="&#x2001;" />
<glyph unicode="&#x2002;" horiz-adv-x="819" />
<glyph unicode="&#x2003;" />
<glyph unicode="&#x2004;" horiz-adv-x="544" />
<glyph unicode="&#x2005;" horiz-adv-x="409" />
<glyph unicode="&#x2006;" horiz-adv-x="272" />
<glyph unicode="&#x2007;" horiz-adv-x="272" />
<glyph unicode="&#x2008;" horiz-adv-x="204" />
<glyph unicode="&#x2009;" horiz-adv-x="327" />
<glyph unicode="&#x200a;" horiz-adv-x="90" />
<glyph unicode="&#x2010;" d="M156 616l90 86h379l90 -81l-90 -86h-379zM774 616l90 86h379l90 -81l-90 -86h-379z" />
<glyph unicode="&#x2011;" d="M156 616l90 86h379l90 -81l-90 -86h-379zM774 616l90 86h379l90 -81l-90 -86h-379z" />
<glyph unicode="&#x2012;" d="M156 616l90 86h379l90 -81l-90 -86h-379zM774 616l90 86h379l90 -81l-90 -86h-379z" />
<glyph unicode="&#x2013;" horiz-adv-x="1024" d="M205 512v205h614v-205h-614z" />
<glyph unicode="&#x2014;" horiz-adv-x="2048" d="M205 512v205h1638v-205h-1638z" />
<glyph unicode="&#x2018;" d="M242 1182v219h45l344 -492v-176h-76z" />
<glyph unicode="&#x2019;" d="M659 1147v248l82 90l88 -90v-248l-81 -90z" />
<glyph unicode="&#x201c;" d="M43 1147v248l82 90l86 -90v-248l-82 -90zM659 1147v248l82 90l88 -90v-248l-81 -90z" />
<glyph unicode="&#x201d;" d="M43 1147v248l82 90l86 -90v-248l-82 -90zM659 1147v248l82 90l88 -90v-248l-81 -90z" />
<glyph unicode="&#x2026;" horiz-adv-x="4915" d="M3873 -213q0 63 43 104t106 41q61 0 104.5 -42t43.5 -103q0 -59 -44 -104t-104 -45q-61 0 -105 44t-44 105zM2234 -213q0 63 43 104t106 41q61 0 104.5 -42t43.5 -103q0 -59 -44 -104t-104 -45q-61 0 -105 44t-44 105zM596 -213q0 63 43 104t106 41q61 0 104.5 -42 t43.5 -103q0 -59 -44 -104t-104 -45q-61 0 -105 44t-44 105z" />
<glyph unicode="&#x202f;" horiz-adv-x="327" />
<glyph unicode="&#x205f;" horiz-adv-x="409" />
<glyph unicode="&#x2122;" horiz-adv-x="3276" d="M1681 -158v656l82 90l86 -90v-656l-82 -92zM1681 737v658l82 90l86 -90v-658l-82 -90zM1880 1182v219h45l344 -492v-176h-76zM2496 733v176l344 492h45v-219l-313 -449h-76zM2916 -158v656l82 90l86 -90v-656l-82 -92zM2916 737v662l82 90l86 -90v-662l-82 -90zM156 1513 l90 86h379l90 -81l-90 -86h-379zM659 -158v656l82 90l88 -90v-656l-81 -92zM659 737v658l82 90l88 -90v-658l-81 -90zM774 1513l90 86h379l90 -81l-90 -86h-379z" />
<glyph unicode="&#xe000;" horiz-adv-x="1400" d="M0 1400h1400v-1400h-1400v1400z" />
<glyph unicode="&#xfb01;" horiz-adv-x="3276" d="M1794 -281l90 86h379l90 -81l-90 -86h-379zM1794 1513l90 86h379l90 -81l-90 -86h-379zM2297 -158v656l82 90l88 -90v-656l-81 -92zM2297 737v658l82 90l88 -90v-658l-81 -90zM2412 -281l90 86h379l90 -81l-90 -86h-379zM2412 1513l90 86h379l90 -81l-90 -86h-379z M43 -158v656l82 90l86 -90v-656l-82 -92zM43 737v658l82 90l86 -90v-658l-82 -90zM156 616l90 86h379l90 -81l-90 -86h-379zM156 1513l90 86h379l90 -81l-90 -86h-379zM774 616l90 86h379l90 -81l-90 -86h-379zM774 1513l90 86h379l90 -81l-90 -86h-379z" />
<glyph unicode="&#xfb02;" horiz-adv-x="3276" d="M1681 -158v656l82 90l86 -90v-656l-82 -92zM1681 737v658l82 90l86 -90v-658l-82 -90zM1794 -281l90 86h379l90 -81l-90 -86h-379zM2412 -281l90 86h379l90 -81l-90 -86h-379zM43 -158v656l82 90l86 -90v-656l-82 -92zM43 737v658l82 90l86 -90v-658l-82 -90zM156 616 l90 86h379l90 -81l-90 -86h-379zM156 1513l90 86h379l90 -81l-90 -86h-379zM774 616l90 86h379l90 -81l-90 -86h-379zM774 1513l90 86h379l90 -81l-90 -86h-379z" />
<glyph unicode="&#xfb03;" horiz-adv-x="4915" d="M3433 -281l90 86h379l90 -81l-90 -86h-379zM3433 1513l90 86h379l90 -81l-90 -86h-379zM3936 -158v656l82 90l88 -90v-656l-81 -92zM3936 737v658l82 90l88 -90v-658l-81 -90zM4051 -281l90 86h379l90 -81l-90 -86h-379zM4051 1513l90 86h379l90 -81l-90 -86h-379z M1681 -158v656l82 90l86 -90v-656l-82 -92zM1681 737v658l82 90l86 -90v-658l-82 -90zM1794 616l90 86h379l90 -81l-90 -86h-379zM1794 1513l90 86h379l90 -81l-90 -86h-379zM2412 616l90 86h379l90 -81l-90 -86h-379zM2412 1513l90 86h379l90 -81l-90 -86h-379zM43 -158 v656l82 90l86 -90v-656l-82 -92zM43 737v658l82 90l86 -90v-658l-82 -90zM156 616l90 86h379l90 -81l-90 -86h-379zM156 1513l90 86h379l90 -81l-90 -86h-379zM774 616l90 86h379l90 -81l-90 -86h-379zM774 1513l90 86h379l90 -81l-90 -86h-379z" />
<glyph unicode="&#xfb04;" horiz-adv-x="4915" d="M3320 -158v656l82 90l86 -90v-656l-82 -92zM3320 737v658l82 90l86 -90v-658l-82 -90zM3433 -281l90 86h379l90 -81l-90 -86h-379zM4051 -281l90 86h379l90 -81l-90 -86h-379zM1681 -158v656l82 90l86 -90v-656l-82 -92zM1681 737v658l82 90l86 -90v-658l-82 -90z M1794 616l90 86h379l90 -81l-90 -86h-379zM1794 1513l90 86h379l90 -81l-90 -86h-379zM2412 616l90 86h379l90 -81l-90 -86h-379zM2412 1513l90 86h379l90 -81l-90 -86h-379zM43 -158v656l82 90l86 -90v-656l-82 -92zM43 737v658l82 90l86 -90v-658l-82 -90zM156 616l90 86 h379l90 -81l-90 -86h-379zM156 1513l90 86h379l90 -81l-90 -86h-379zM774 616l90 86h379l90 -81l-90 -86h-379zM774 1513l90 86h379l90 -81l-90 -86h-379z" />
</font>
</defs>
</svg>
